<?xml version="1.0" encoding="UTF-8" standalone="no"?>
<svg
   version="1.0"
   width="946.75134"
   height="474.46829"
   id="svg2"
   inkscape:version="1.3.2 (091e20e, 2023-11-25, custom)"
   sodipodi:docname="SFMO-logo.svg"
   inkscape:export-filename="C:\Users\lassi\Dropbox\Misc\SFMO logo.png"
   inkscape:export-xdpi="90"
   inkscape:export-ydpi="90"
   xmlns:inkscape="http://www.inkscape.org/namespaces/inkscape"
   xmlns:sodipodi="http://sodipodi.sourceforge.net/DTD/sodipodi-0.dtd"
   xmlns:xlink="http://www.w3.org/1999/xlink"
   xmlns="http://www.w3.org/2000/svg"
   xmlns:svg="http://www.w3.org/2000/svg"
   xmlns:rdf="http://www.w3.org/1999/02/22-rdf-syntax-ns#"
   xmlns:cc="http://creativecommons.org/ns#"
   xmlns:dc="http://purl.org/dc/elements/1.1/">
  <title
     id="title4177">SFMO logo</title>
  <metadata
     id="metadata3512">
    <rdf:RDF>
      <cc:Work
         rdf:about="">
        <dc:format>image/svg+xml</dc:format>
        <dc:type
           rdf:resource="http://purl.org/dc/dcmitype/StillImage" />
        <dc:title>SFMO logo</dc:title>
        <dc:date>14.10.2016</dc:date>
        <dc:creator>
          <cc:Agent>
            <dc:title>Lassi Lehtisyrjä</dc:title>
          </cc:Agent>
        </dc:creator>
        <dc:relation />
        <dc:description />
        <dc:contributor>
          <cc:Agent>
            <dc:title />
          </cc:Agent>
        </dc:contributor>
        <dc:rights>
          <cc:Agent>
            <dc:title>Lassi Lehtisyrjä</dc:title>
          </cc:Agent>
        </dc:rights>
        <dc:publisher>
          <cc:Agent>
            <dc:title />
          </cc:Agent>
        </dc:publisher>
        <dc:identifier />
        <dc:source />
        <dc:language />
        <dc:subject>
          <rdf:Bag />
        </dc:subject>
        <cc:license
           rdf:resource="" />
      </cc:Work>
    </rdf:RDF>
  </metadata>
  <sodipodi:namedview
     pagecolor="#ffffff"
     bordercolor="#666666"
     borderopacity="1"
     objecttolerance="10"
     gridtolerance="10"
     guidetolerance="10"
     inkscape:pageopacity="0"
     inkscape:pageshadow="2"
     inkscape:window-width="1920"
     inkscape:window-height="1009"
     id="namedview3510"
     showgrid="false"
     showguides="false"
     inkscape:zoom="1.001617"
     inkscape:cx="264.07299"
     inkscape:cy="148.26026"
     inkscape:window-x="1192"
     inkscape:window-y="735"
     inkscape:window-maximized="1"
     inkscape:current-layer="svg2"
     inkscape:guide-bbox="true"
     inkscape:snap-global="true"
     fit-margin-top="10"
     fit-margin-left="10"
     fit-margin-right="10"
     fit-margin-bottom="10"
     borderlayer="false"
     showborder="true"
     inkscape:showpageshadow="true"
     inkscape:pagecheckerboard="0"
     inkscape:deskcolor="#d1d1d1" />
  <defs
     id="defs3446" />
  <g
     inkscape:groupmode="layer"
     id="layer1"
     inkscape:label="Auxiliary"
     style="display:none"
     transform="translate(116.73933,173.98031)">
    <path
       sodipodi:type="star"
       style="color:#000000;display:inline;overflow:visible;visibility:visible;fill:none;stroke:#000000;stroke-width:0.21169238;stroke-linecap:butt;stroke-linejoin:miter;stroke-miterlimit:1;stroke-dasharray:none;stroke-dashoffset:0;stroke-opacity:1;marker:none;enable-background:accumulate"
       id="path5191"
       sodipodi:sides="6"
       sodipodi:cx="-52.538071"
       sodipodi:cy="55.583755"
       sodipodi:r1="31.174135"
       sodipodi:r2="26.997595"
       sodipodi:arg1="0.52359878"
       sodipodi:arg2="1.0471976"
       inkscape:flatsided="true"
       inkscape:rounded="0"
       inkscape:randomized="0"
       d="m -25.540478,71.170823 -26.997593,15.587068 -26.997593,-15.587068 0,-31.174135 26.997593,-15.587068 26.997593,15.587068 z"
       transform="matrix(4.7710074,0,0,4.7954407,424.64429,-204.49276)" />
  </g>
  <rect
     style="fill:#ffffff;stroke-width:0.961064"
     id="rect1"
     width="928.4986"
     height="450.27194"
     x="11.980638"
     y="12.97901" />
  <g
     inkscape:groupmode="layer"
     id="layer2"
     inkscape:label="Main"
     transform="translate(116.73933,173.98031)">
    <g
       id="orbitals"
       transform="matrix(1.5,0,0,1.5,-32.071086,-198.40549)">
      <path
         style="color:#000000;display:inline;overflow:visible;visibility:visible;fill:none;stroke:#5591a9;stroke-width:4;stroke-linecap:butt;stroke-linejoin:miter;stroke-miterlimit:10;stroke-dasharray:none;stroke-dashoffset:0;stroke-opacity:1;marker:none;enable-background:accumulate"
         d="m 169.43143,252.80238 c 3.96138,-22.81541 6.25406,-49.6863 6.26084,-78.46149 0.0194,-82.566432 -18.77225,-149.445214 -41.95781,-149.390734 -9.81378,0.02306 -18.84472,12.034093 -25.99878,32.14187 -9.747771,27.397882 -16.011021,69.827744 -16.022227,117.446184 -0.01943,82.56643 18.772247,149.4452 41.957807,149.39073 9.63906,-0.0227 18.52106,-11.61395 25.61212,-31.08143"
         id="master_orbital"
         inkscape:connector-curvature="0"
         sodipodi:nodetypes="csssssc" />
      <use
         height="300"
         width="300"
         transform="matrix(-0.50150643,-0.86515392,0.86515392,-0.50150643,49.854185,378.20235)"
         id="use5249"
         xlink:href="#master_orbital"
         y="0"
         x="0" />
      <use
         height="300"
         width="300"
         transform="matrix(-0.50070707,0.86561679,-0.86561679,-0.50070707,351.66217,146.65391)"
         id="use5251"
         xlink:href="#master_orbital"
         y="0"
         x="0" />
    </g>
    <g
       style="font-style:normal;font-weight:normal;font-size:37.5px;line-height:125%;font-family:sans-serif;text-align:center;letter-spacing:0px;word-spacing:0px;text-anchor:middle;fill:#000000;fill-opacity:1;stroke:none;stroke-width:1px;stroke-linecap:butt;stroke-linejoin:miter;stroke-opacity:1"
       id="text4234">
      <path
         d="m 26.687956,16.669037 -3.614502,2.896728 q -1.435547,-1.486816 -2.614746,-2.204589 -1.153565,-0.743409 -3.358154,-0.743409 -2.409668,0 -3.92212,1.102295 -1.486816,1.07666 -1.486816,2.79419 0,1.486816 1.307373,2.640381 1.307373,1.127929 4.460449,2.486572 3.153076,1.333008 4.89624,2.512207 1.768799,1.153564 2.896729,2.563476 1.12793,1.409913 1.66626,2.973633 0.563965,1.563721 0.563965,3.306885 0,4.075928 -2.973633,6.947021 -2.947998,2.871094 -7.1521,2.871094 -4.101562,0 -7.254639,-2.230224 -3.1274409,-2.25586 -4.8193354,-6.741944 L 9.7433758,36.58725 q 2.4353032,5.511474 7.4597172,5.511474 2.435302,0 4.050293,-1.461181 1.61499,-1.461182 1.61499,-3.691407 0,-1.333007 -0.845947,-2.666015 Q 21.176481,32.921478 19.920378,32.049896 18.664274,31.178314 15.89572,30.076019 13.1528,28.94809 11.665983,28.025238 10.204802,27.076752 9.1281414,25.795013 8.0514812,24.48764 7.5387859,23.205902 7.0517254,21.924164 7.0517254,20.462982 q 0,-3.511963 2.8198242,-5.9729 2.8198244,-2.486572 6.8444824,-2.486572 2.666016,0 5.408936,1.153564 2.742919,1.153564 4.562988,3.511963 z"
         style="font-style:normal;font-variant:normal;font-weight:normal;font-stretch:normal;font-size:52.5px;font-family:'Tw Cen MT';-inkscape-font-specification:'Tw Cen MT'"
         id="path6001" />
    </g>
    <g
       style="font-style:normal;font-weight:normal;font-size:37.5px;line-height:125%;font-family:sans-serif;text-align:center;letter-spacing:0px;word-spacing:0px;text-anchor:middle;fill:#000000;fill-opacity:1;stroke:none;stroke-width:1px;stroke-linecap:butt;stroke-linejoin:miter;stroke-opacity:1"
       id="text4238">
      <path
         d="m 264.39258,-65.603439 18.09814,0 0,4.460449 -13.68896,0 0,8.151855 13.68896,0 0,4.40918 -13.63769,0 0,15.637207 -4.46045,0 0,-32.658691 z"
         style="font-style:normal;font-variant:normal;font-weight:normal;font-stretch:normal;font-size:52.5px;font-family:'Tw Cen MT';-inkscape-font-specification:'Tw Cen MT'"
         id="path6004" />
    </g>
    <g
       style="font-style:normal;font-weight:normal;font-size:37.5px;line-height:125%;font-family:sans-serif;text-align:center;letter-spacing:0px;word-spacing:0px;text-anchor:middle;fill:#000000;fill-opacity:1;stroke:none;stroke-width:1px;stroke-linecap:butt;stroke-linejoin:miter;stroke-opacity:1"
       id="text4242">
      <path
         d="m 224.66136,191.34677 8.9209,34.01734 -4.35791,0 -5.40894,-20.7898 -9.30542,22.0459 -9.33105,-22.19971 -5.46021,20.94361 -4.35791,0 8.9209,-34.01734 10.22827,24.35303 10.15137,-24.35303 z"
         style="font-style:normal;font-variant:normal;font-weight:normal;font-stretch:normal;font-size:52.5px;font-family:'Tw Cen MT';-inkscape-font-specification:'Tw Cen MT'"
         id="path6007" />
    </g>
    <g
       style="font-style:normal;font-weight:normal;font-size:37.5px;line-height:125%;font-family:sans-serif;text-align:center;letter-spacing:0px;word-spacing:0px;text-anchor:middle;opacity:1;fill:#818a93;fill-opacity:1;stroke:none;stroke-width:1px;stroke-linecap:butt;stroke-linejoin:miter;stroke-opacity:1"
       id="text4246">
      <path
         d="m 145.09697,61.990402 q 0,-9.096679 6.85547,-15.589599 6.85547,-6.49292 16.47949,-6.49292 9.39331,0 16.18286,6.558838 6.78955,6.525878 6.78955,15.523681 0,9.525147 -6.72363,16.116944 -6.69067,6.558837 -16.44653,6.558837 -9.62403,0 -16.38062,-6.624755 -6.75659,-6.624756 -6.75659,-16.051026 z m 40.20996,0.263672 q 0,-6.954346 -5.00977,-11.700439 -5.00976,-4.779053 -12.32666,-4.779053 -6.95434,0 -11.93115,4.844971 -4.94385,4.84497 -4.94385,11.634521 0,6.888428 5.07569,11.667481 5.10864,4.746093 12.49145,4.746093 6.78955,0 11.70044,-4.84497 4.94385,-4.87793 4.94385,-11.568604 z"
         style="font-style:normal;font-variant:normal;font-weight:normal;font-stretch:normal;font-size:67.5px;font-family:'Tw Cen MT';-inkscape-font-specification:'Tw Cen MT';fill:#596261;fill-opacity:1"
         id="path5998" />
    </g>
    <flowRoot
       xml:space="preserve"
       id="flowRoot4250"
       style="font-style:normal;font-weight:normal;line-height:0.01%;font-family:sans-serif;text-align:center;letter-spacing:0px;word-spacing:0px;text-anchor:middle;fill:#000000;fill-opacity:1;stroke:none;stroke-width:1px;stroke-linecap:butt;stroke-linejoin:miter;stroke-opacity:1"
       transform="translate(40.51198,-88.276301)"><flowRegion
         id="flowRegion4252"><rect
           id="rect4254"
           width="315.92667"
           height="318.51624"
           x="-5.1791258"
           y="6.0393622e-006" /></flowRegion><flowPara
         id="flowPara4256"
         style="font-size:25px;line-height:1.25"> </flowPara></flowRoot>
    <text
       xml:space="preserve"
       style="font-style:normal;font-weight:normal;line-height:0%;font-family:sans-serif;text-align:center;letter-spacing:0px;word-spacing:0px;text-anchor:middle;fill:#000000;fill-opacity:1;stroke:none;stroke-width:1px;stroke-linecap:butt;stroke-linejoin:miter;stroke-opacity:1"
       x="431.53598"
       y="74.866158"
       id="text4258"><tspan
         sodipodi:role="line"
         id="tspan4260"
         x="435.93051"
         y="74.866158"
         style="font-size:25px;line-height:1.25"> </tspan></text>
    <g
       id="g4277"
       transform="matrix(1.5,0,0,1.5,384.68959,-703.87527)">
      <path
         id="anglr"
         d="m 60.060842,512.06135 -42.374757,149.94147 -26.0767771,0 42.3747611,-149.94147 -42.3747611,-149.94146 26.0767771,0 z"
         inkscape:connector-curvature="0"
         style="fill:#959ea7;fill-opacity:1" />
      <path
         id="anglr-6"
         d="m -301.5425,661.96755 -26.07678,0 c 0,-107.26018 0,-168.25803 0,-299.88293 l 26.07678,0 c 0,122.36114 0,191.17566 0,299.88293 z"
         inkscape:connector-curvature="0"
         sodipodi:nodetypes="ccccc"
         style="fill:#959ea7;fill-opacity:1" />
      <text
         xml:space="preserve"
         style="font-style:normal;font-weight:normal;line-height:0%;font-family:sans-serif;text-align:center;letter-spacing:0px;word-spacing:0px;text-anchor:middle;fill:#000000;fill-opacity:1;stroke:none;stroke-width:1px;stroke-linecap:butt;stroke-linejoin:miter;stroke-opacity:1"
         x="64.613541"
         y="421.39139"
         id="text4306"><tspan
           sodipodi:role="line"
           id="tspan4308"
           x="69.008072"
           y="421.39139"
           style="font-size:25px;line-height:1.25"> </tspan></text>
      <g
         style="font-style:normal;font-weight:normal;font-size:25px;line-height:125%;font-family:sans-serif;text-align:center;letter-spacing:0px;word-spacing:0px;text-anchor:middle;fill:#000000;fill-opacity:1;stroke:none;stroke-width:1px;stroke-linecap:butt;stroke-linejoin:miter;stroke-opacity:1"
         id="text4310">
        <path
           d="m 140.01962,398.31229 -2.7539,2.20703 q -1.09375,-1.13281 -1.99219,-1.67969 -0.87891,-0.56641 -2.55859,-0.56641 -1.83594,0 -2.98829,0.83985 -1.13281,0.82031 -1.13281,2.1289 0,1.13282 0.9961,2.01172 0.99609,0.85938 3.39843,1.89453 2.40235,1.01563 3.73047,1.91407 1.34766,0.8789 2.20703,1.95312 0.85938,1.07422 1.26953,2.26563 0.42969,1.1914 0.42969,2.51953 0,3.10547 -2.26562,5.29297 -2.2461,2.1875 -5.44922,2.1875 -3.125,0 -5.52735,-1.69922 -2.38281,-1.71875 -3.67187,-5.13672 l 3.39844,-0.95703 q 1.85547,4.19922 5.68359,4.19922 1.85547,0 3.08594,-1.11328 1.23047,-1.11329 1.23047,-2.8125 0,-1.01563 -0.64453,-2.03125 -0.64454,-1.03516 -1.60157,-1.69922 -0.95703,-0.66407 -3.0664,-1.50391 -2.08985,-0.85937 -3.22266,-1.5625 -1.11328,-0.72266 -1.93359,-1.69922 -0.82032,-0.99609 -1.21094,-1.97265 -0.37109,-0.97657 -0.37109,-2.08985 0,-2.67578 2.14843,-4.55078 2.14844,-1.89453 5.21485,-1.89453 2.03125,0 4.12109,0.87891 2.08984,0.8789 3.47656,2.67578 z"
           style="font-style:normal;font-variant:normal;font-weight:normal;font-stretch:normal;font-size:40px;font-family:'Tw Cen MT';-inkscape-font-specification:'Tw Cen MT'"
           id="path5915" />
        <path
           d="m 143.90634,404.32791 3.39844,0 0,9.08203 q 0,4.19922 3.69141,4.19922 1.64062,0 2.59765,-1.11328 0.95703,-1.13281 0.95703,-3.08594 l 0,-9.08203 3.35938,0 0,9.62891 q 0,3.02734 -1.97266,4.98047 -1.97265,1.95312 -5.03906,1.95312 -3.125,0 -5.05859,-1.95312 -1.9336,-1.95313 -1.9336,-5.09766 l 0,-9.51172 z"
           style="font-style:normal;font-variant:normal;font-weight:normal;font-stretch:normal;font-size:40px;font-family:'Tw Cen MT';-inkscape-font-specification:'Tw Cen MT'"
           id="path5917" />
        <path
           d="m 161.09384,412.31619 q 0,-3.30078 2.59766,-5.85937 2.61719,-2.57813 5.99609,-2.57813 3.47656,0 6.07422,2.53907 2.59766,2.51953 2.59766,5.89843 0,3.39844 -2.5586,5.9961 -2.53906,2.57812 -5.8789,2.57812 -3.57422,0 -6.21094,-2.55859 -2.61719,-2.5586 -2.61719,-6.01563 z m 13.98438,0 q 0,-2.05078 -1.5625,-3.55468 -1.5625,-1.52344 -3.71094,-1.52344 -2.20703,0 -3.80859,1.54297 -1.58204,1.52343 -1.58204,3.65234 0,2.03125 1.60157,3.55469 1.62109,1.52344 3.78906,1.52344 2.10937,0 3.69141,-1.5625 1.58203,-1.5625 1.58203,-3.63282 z"
           style="font-style:normal;font-variant:normal;font-weight:normal;font-stretch:normal;font-size:40px;font-family:'Tw Cen MT';-inkscape-font-specification:'Tw Cen MT'"
           id="path5919" />
        <path
           d="m 181.67978,420.44119 0,-16.11328 3.35937,0 0,2.48047 q 1.19141,-1.52344 2.26563,-2.22656 1.09375,-0.70313 2.5,-0.70313 1.83594,0 2.87109,0.80078 1.05469,0.80079 1.77735,2.5586 1.26953,-1.75781 2.4414,-2.5586 1.19141,-0.80078 2.75391,-0.80078 1.91406,0 3.30078,1.44532 1.38672,1.42578 1.38672,3.39843 l 0,11.71875 -3.37891,0 0,-10.83984 q 0,-2.67578 -2.63672,-2.67578 -1.5039,0 -2.55859,1.36719 -1.03516,1.36718 -1.03516,3.3789 l 0,8.76953 -3.39843,0 0,-10.39062 q 0,-3.16406 -2.59766,-3.16406 -1.54297,0 -2.61719,1.28906 -1.07422,1.28906 -1.07422,3.18359 l 0,9.08203 -3.35937,0 z"
           style="font-style:normal;font-variant:normal;font-weight:normal;font-stretch:normal;font-size:40px;font-family:'Tw Cen MT';-inkscape-font-specification:'Tw Cen MT'"
           id="path5921" />
        <path
           d="m 224.80478,413.03885 -13.75,0 q 0.44922,2.48047 2.03125,3.63281 1.60156,1.13281 3.47656,1.13281 2.89063,0 4.84375,-2.40234 l 2.48047,1.875 q -2.79297,3.61328 -7.48047,3.61328 -3.59375,0 -6.01562,-2.46094 -2.42188,-2.46093 -2.42188,-6.11328 0,-3.41797 2.44141,-5.91797 2.46094,-2.51953 5.99609,-2.51953 3.47656,0 5.95703,2.5586 2.48047,2.53906 2.44141,6.60156 z m -13.39844,-2.71484 9.84375,0 q -1.64062,-3.32032 -4.84375,-3.32032 -3.49609,0 -5,3.32032 z"
           style="font-style:normal;font-variant:normal;font-weight:normal;font-stretch:normal;font-size:40px;font-family:'Tw Cen MT';-inkscape-font-specification:'Tw Cen MT'"
           id="path5923" />
        <path
           d="m 228.08603,420.44119 0,-16.11328 3.32031,0 0,2.67578 q 1.46485,-1.62109 2.65625,-2.36328 1.19141,-0.76172 2.65625,-0.76172 2.1875,0 3.73047,1.44532 1.5625,1.44531 1.5625,3.47656 l 0,11.64062 -3.39844,0 0,-10.64453 q 0,-1.30859 -0.85937,-2.16797 -0.83985,-0.85937 -2.14844,-0.85937 -1.69922,0 -2.92969,1.44531 -1.23047,1.42578 -1.23047,3.45703 l 0,8.76953 -3.35937,0 z"
           style="font-style:normal;font-variant:normal;font-weight:normal;font-stretch:normal;font-size:40px;font-family:'Tw Cen MT';-inkscape-font-specification:'Tw Cen MT'"
           id="path5925" />
        <path
           d="m 101.73837,445.55838 13.78907,0 0,3.39844 -10.42969,0 0,6.21094 10.42969,0 0,3.35937 -10.39063,0 0,11.91406 -3.39844,0 0,-24.88281 z"
           style="font-style:normal;font-variant:normal;font-weight:normal;font-stretch:normal;font-size:40px;font-family:'Tw Cen MT';-inkscape-font-specification:'Tw Cen MT'"
           id="path5927" />
        <path
           d="m 118.14462,454.32791 3.84766,0 5.83984,8.75 4.04297,-8.75 3.51563,0 -10.87891,23.67188 -3.55469,0 5.3125,-11.52344 -8.125,-12.14844 z"
           style="font-style:normal;font-variant:normal;font-weight:normal;font-stretch:normal;font-size:40px;font-family:'Tw Cen MT';-inkscape-font-specification:'Tw Cen MT'"
           id="path5929" />
        <path
           d="m 148.90634,456.24197 -2.26562,1.99219 q -0.87891,-0.625 -1.52344,-0.9375 -0.64453,-0.33203 -1.52344,-0.33203 -2.07031,0 -2.07031,1.52344 0,1.09375 2.61719,2.1289 2.63672,1.01563 3.78906,2.2461 1.15234,1.23047 1.15234,2.96875 0,2.03125 -1.66015,3.55469 -1.66016,1.5039 -3.90625,1.5039 -3.41797,0 -5.60547,-3.16406 l 2.67578,-1.28906 q 1.40625,1.36718 2.92969,1.36718 1.05468,0 1.83593,-0.5664 0.80079,-0.58594 0.80079,-1.34766 0,-1.34765 -2.77344,-2.42187 -2.77344,-1.07422 -3.84766,-2.16797 -1.05469,-1.11328 -1.05469,-2.73438 0,-2.01172 1.50391,-3.33984 1.52344,-1.34766 3.80859,-1.34766 2.28516,0 5.11719,2.36328 z"
           style="font-style:normal;font-variant:normal;font-weight:normal;font-stretch:normal;font-size:40px;font-family:'Tw Cen MT';-inkscape-font-specification:'Tw Cen MT'"
           id="path5931" />
        <path
           d="m 151.91415,449.03494 q 0,-1.05468 0.78125,-1.8164 0.78125,-0.78125 1.85547,-0.78125 1.05469,0 1.81641,0.78125 0.78125,0.76172 0.78125,1.8164 0,1.07422 -0.78125,1.83594 -0.76172,0.76172 -1.81641,0.76172 -1.07422,0 -1.85547,-0.76172 -0.78125,-0.76172 -0.78125,-1.83594 z m 0.95704,5.29297 3.35937,0 0,16.11328 -3.35937,0 0,-16.11328 z"
           style="font-style:normal;font-variant:normal;font-weight:normal;font-stretch:normal;font-size:40px;font-family:'Tw Cen MT';-inkscape-font-specification:'Tw Cen MT'"
           id="path5933" />
        <path
           d="m 160.66415,449.03494 q 0,-1.05468 0.78125,-1.8164 0.78125,-0.78125 1.85547,-0.78125 1.05469,0 1.81641,0.78125 0.78125,0.76172 0.78125,1.8164 0,1.07422 -0.78125,1.83594 -0.76172,0.76172 -1.81641,0.76172 -1.07422,0 -1.85547,-0.76172 -0.78125,-0.76172 -0.78125,-1.83594 z m 0.95704,5.29297 3.35937,0 0,16.11328 -3.35937,0 0,-16.11328 z"
           style="font-style:normal;font-variant:normal;font-weight:normal;font-stretch:normal;font-size:40px;font-family:'Tw Cen MT';-inkscape-font-specification:'Tw Cen MT'"
           id="path5935" />
        <path
           d="m 169.84384,445.08963 3.37891,0 0,16.30859 6.67969,-7.07031 4.39453,0 -6.97266,7.44141 7.05078,8.67187 -4.19922,0 -6.95312,-8.51562 0,8.51562 -3.37891,0 0,-25.35156 z"
           style="font-style:normal;font-variant:normal;font-weight:normal;font-stretch:normal;font-size:40px;font-family:'Tw Cen MT';-inkscape-font-specification:'Tw Cen MT'"
           id="path5937" />
        <path
           d="m 201.11337,454.32791 3.39844,0 0,16.11328 -3.39844,0 0,-3.20312 q -2.48047,3.65234 -6.15234,3.65234 -3.18359,0 -5.44922,-2.5 -2.24609,-2.5 -2.24609,-6.07422 0,-3.3789 2.26562,-5.89843 2.28516,-2.53907 5.35156,-2.53907 1.89454,0 3.59375,1.03516 1.69922,1.03516 2.63672,2.69531 l 0,-3.28125 z m 0.44922,8.10547 q 0,-2.20703 -1.58203,-3.76953 -1.58203,-1.58203 -3.78906,-1.58203 -2.14844,0 -3.75,1.5625 -1.60156,1.5625 -1.60156,3.67187 0,2.28516 1.5625,3.88672 1.5625,1.60156 3.78906,1.60156 2.20703,0 3.78906,-1.58203 1.58203,-1.60156 1.58203,-3.78906 z"
           style="font-style:normal;font-variant:normal;font-weight:normal;font-stretch:normal;font-size:40px;font-family:'Tw Cen MT';-inkscape-font-specification:'Tw Cen MT'"
           id="path5939" />
        <path
           d="m 209.02353,470.44119 0,-16.11328 3.32031,0 0,2.67578 q 1.46485,-1.62109 2.65625,-2.36328 1.19141,-0.76172 2.65625,-0.76172 2.1875,0 3.73047,1.44532 1.5625,1.44531 1.5625,3.47656 l 0,11.64062 -3.39844,0 0,-10.64453 q 0,-1.30859 -0.85937,-2.16797 -0.83985,-0.85937 -2.14844,-0.85937 -1.69922,0 -2.92969,1.44531 -1.23047,1.42578 -1.23047,3.45703 l 0,8.76953 -3.35937,0 z"
           style="font-style:normal;font-variant:normal;font-weight:normal;font-stretch:normal;font-size:40px;font-family:'Tw Cen MT';-inkscape-font-specification:'Tw Cen MT'"
           id="path5941" />
        <path
           d="m 237.57822,449.07401 q 0,-1.07422 0.78125,-1.85547 0.78125,-0.78125 1.85547,-0.78125 1.07421,0 1.85546,0.78125 0.78125,0.78125 0.78125,1.85547 0,1.07421 -0.78125,1.875 -0.78125,0.78125 -1.85546,0.78125 -1.07422,0 -1.85547,-0.78125 -0.78125,-0.80079 -0.78125,-1.875 z m 0.95703,5.2539 3.39844,0 0,23.67188 -3.39844,0 0,-23.67188 z"
           style="font-style:normal;font-variant:normal;font-weight:normal;font-stretch:normal;font-size:40px;font-family:'Tw Cen MT';-inkscape-font-specification:'Tw Cen MT'"
           id="path5943" />
        <path
           d="m 260.48837,454.32791 3.39844,0 0,16.11328 -3.39844,0 0,-3.20312 q -2.48047,3.65234 -6.15234,3.65234 -3.18359,0 -5.44922,-2.5 -2.24609,-2.5 -2.24609,-6.07422 0,-3.3789 2.26562,-5.89843 2.28516,-2.53907 5.35156,-2.53907 1.89454,0 3.59375,1.03516 1.69922,1.03516 2.63672,2.69531 l 0,-3.28125 z m 0.44922,8.10547 q 0,-2.20703 -1.58203,-3.76953 -1.58203,-1.58203 -3.78906,-1.58203 -2.14844,0 -3.75,1.5625 -1.60156,1.5625 -1.60156,3.67187 0,2.28516 1.5625,3.88672 1.5625,1.60156 3.78906,1.60156 2.20703,0 3.78906,-1.58203 1.58203,-1.60156 1.58203,-3.78906 z"
           style="font-style:normal;font-variant:normal;font-weight:normal;font-stretch:normal;font-size:40px;font-family:'Tw Cen MT';-inkscape-font-specification:'Tw Cen MT'"
           id="path5945" />
        <path
           d="m 97.148529,494.52322 6.796871,25.91797 -3.32031,0 -4.121092,-15.83984 -7.089844,16.79687 -7.109375,-16.91406 -4.160156,15.95703 -3.320313,0 6.796875,-25.91797 7.792969,18.55469 7.734375,-18.55469 z"
           style="font-style:normal;font-variant:normal;font-weight:normal;font-stretch:normal;font-size:40px;font-family:'Tw Cen MT';-inkscape-font-specification:'Tw Cen MT'"
           id="path5947" />
        <path
           d="m 120.72275,504.32791 3.39844,0 0,16.11328 -3.39844,0 0,-3.20312 q -2.48047,3.65234 -6.15235,3.65234 -3.18359,0 -5.44921,-2.5 -2.2461,-2.5 -2.2461,-6.07422 0,-3.3789 2.26563,-5.89843 2.28515,-2.53907 5.35156,-2.53907 1.89453,0 3.59375,1.03516 1.69922,1.03516 2.63672,2.69531 l 0,-3.28125 z m 0.44922,8.10547 q 0,-2.20703 -1.58203,-3.76953 -1.58204,-1.58203 -3.78907,-1.58203 -2.14843,0 -3.75,1.5625 -1.60156,1.5625 -1.60156,3.67187 0,2.28516 1.5625,3.88672 1.5625,1.60156 3.78906,1.60156 2.20703,0 3.78907,-1.58203 1.58203,-1.60156 1.58203,-3.78906 z"
           style="font-style:normal;font-variant:normal;font-weight:normal;font-stretch:normal;font-size:40px;font-family:'Tw Cen MT';-inkscape-font-specification:'Tw Cen MT'"
           id="path5949" />
        <path
           d="m 130.35165,499.64041 3.39844,0 0,4.6875 3.35938,0 0,3.10547 -3.35938,0 0,13.00781 -3.39844,0 0,-13.00781 -2.67578,0 0,-3.14453 2.67578,0 0,-4.64844 z"
           style="font-style:normal;font-variant:normal;font-weight:normal;font-stretch:normal;font-size:40px;font-family:'Tw Cen MT';-inkscape-font-specification:'Tw Cen MT'"
           id="path5951" />
        <path
           d="m 156.21103,513.03885 -13.75,0 q 0.44922,2.48047 2.03125,3.63281 1.60156,1.13281 3.47656,1.13281 2.89063,0 4.84375,-2.40234 l 2.48047,1.875 q -2.79297,3.61328 -7.48047,3.61328 -3.59375,0 -6.01562,-2.46094 -2.42188,-2.46093 -2.42188,-6.11328 0,-3.41797 2.44141,-5.91797 2.46094,-2.51953 5.99609,-2.51953 3.47656,0 5.95703,2.5586 2.48047,2.53906 2.44141,6.60156 z m -13.39844,-2.71484 9.84375,0 q -1.64062,-3.32032 -4.84375,-3.32032 -3.49609,0 -5,3.32032 z"
           style="font-style:normal;font-variant:normal;font-weight:normal;font-stretch:normal;font-size:40px;font-family:'Tw Cen MT';-inkscape-font-specification:'Tw Cen MT'"
           id="path5953" />
        <path
           d="m 159.80478,520.44119 0,-16.11328 3.35937,0 0,2.48047 q 1.19141,-1.52344 2.26563,-2.22656 1.09375,-0.70313 2.5,-0.70313 1.83594,0 2.87109,0.80078 1.05469,0.80079 1.77735,2.5586 1.26953,-1.75781 2.4414,-2.5586 1.19141,-0.80078 2.75391,-0.80078 1.91406,0 3.30078,1.44532 1.38672,1.42578 1.38672,3.39843 l 0,11.71875 -3.37891,0 0,-10.83984 q 0,-2.67578 -2.63672,-2.67578 -1.5039,0 -2.55859,1.36719 -1.03516,1.36718 -1.03516,3.3789 l 0,8.76953 -3.39843,0 0,-10.39062 q 0,-3.16406 -2.59766,-3.16406 -1.54297,0 -2.61719,1.28906 -1.07422,1.28906 -1.07422,3.18359 l 0,9.08203 -3.35937,0 z"
           style="font-style:normal;font-variant:normal;font-weight:normal;font-stretch:normal;font-size:40px;font-family:'Tw Cen MT';-inkscape-font-specification:'Tw Cen MT'"
           id="path5955" />
        <path
           d="m 200.41025,504.32791 3.39844,0 0,16.11328 -3.39844,0 0,-3.20312 q -2.48047,3.65234 -6.15235,3.65234 -3.18359,0 -5.44921,-2.5 -2.2461,-2.5 -2.2461,-6.07422 0,-3.3789 2.26563,-5.89843 2.28515,-2.53907 5.35156,-2.53907 1.89453,0 3.59375,1.03516 1.69922,1.03516 2.63672,2.69531 l 0,-3.28125 z m 0.44922,8.10547 q 0,-2.20703 -1.58203,-3.76953 -1.58204,-1.58203 -3.78907,-1.58203 -2.14843,0 -3.75,1.5625 -1.60156,1.5625 -1.60156,3.67187 0,2.28516 1.5625,3.88672 1.5625,1.60156 3.78906,1.60156 2.20703,0 3.78907,-1.58203 1.58203,-1.60156 1.58203,-3.78906 z"
           style="font-style:normal;font-variant:normal;font-weight:normal;font-stretch:normal;font-size:40px;font-family:'Tw Cen MT';-inkscape-font-specification:'Tw Cen MT'"
           id="path5957" />
        <path
           d="m 210.03915,499.64041 3.39844,0 0,4.6875 3.35938,0 0,3.10547 -3.35938,0 0,13.00781 -3.39844,0 0,-13.00781 -2.67578,0 0,-3.14453 2.67578,0 0,-4.64844 z"
           style="font-style:normal;font-variant:normal;font-weight:normal;font-stretch:normal;font-size:40px;font-family:'Tw Cen MT';-inkscape-font-specification:'Tw Cen MT'"
           id="path5959" />
        <path
           d="m 219.17978,499.03494 q 0,-1.05468 0.78125,-1.8164 0.78125,-0.78125 1.85547,-0.78125 1.05469,0 1.8164,0.78125 0.78125,0.76172 0.78125,1.8164 0,1.07422 -0.78125,1.83594 -0.76171,0.76172 -1.8164,0.76172 -1.07422,0 -1.85547,-0.76172 -0.78125,-0.76172 -0.78125,-1.83594 z m 0.95703,5.29297 3.35938,0 0,16.11328 -3.35938,0 0,-16.11328 z"
           style="font-style:normal;font-variant:normal;font-weight:normal;font-stretch:normal;font-size:40px;font-family:'Tw Cen MT';-inkscape-font-specification:'Tw Cen MT'"
           id="path5961" />
        <path
           d="m 227.92978,499.03494 q 0,-1.05468 0.78125,-1.8164 0.78125,-0.78125 1.85547,-0.78125 1.05469,0 1.8164,0.78125 0.78125,0.76172 0.78125,1.8164 0,1.07422 -0.78125,1.83594 -0.76171,0.76172 -1.8164,0.76172 -1.07422,0 -1.85547,-0.76172 -0.78125,-0.76172 -0.78125,-1.83594 z m 0.95703,5.29297 3.35938,0 0,16.11328 -3.35938,0 0,-16.11328 z"
           style="font-style:normal;font-variant:normal;font-weight:normal;font-stretch:normal;font-size:40px;font-family:'Tw Cen MT';-inkscape-font-specification:'Tw Cen MT'"
           id="path5963" />
        <path
           d="m 237.10947,495.08963 3.3789,0 0,16.30859 6.67969,-7.07031 4.39453,0 -6.97265,7.44141 7.05078,8.67187 -4.19922,0 -6.95313,-8.51562 0,8.51562 -3.3789,0 0,-25.35156 z"
           style="font-style:normal;font-variant:normal;font-weight:normal;font-stretch:normal;font-size:40px;font-family:'Tw Cen MT';-inkscape-font-specification:'Tw Cen MT'"
           id="path5965" />
        <path
           d="m 268.379,504.32791 3.39844,0 0,16.11328 -3.39844,0 0,-3.20312 q -2.48047,3.65234 -6.15235,3.65234 -3.18359,0 -5.44921,-2.5 -2.2461,-2.5 -2.2461,-6.07422 0,-3.3789 2.26563,-5.89843 2.28515,-2.53907 5.35156,-2.53907 1.89453,0 3.59375,1.03516 1.69922,1.03516 2.63672,2.69531 l 0,-3.28125 z m 0.44922,8.10547 q 0,-2.20703 -1.58203,-3.76953 -1.58204,-1.58203 -3.78907,-1.58203 -2.14843,0 -3.75,1.5625 -1.60156,1.5625 -1.60156,3.67187 0,2.28516 1.5625,3.88672 1.5625,1.60156 3.78906,1.60156 2.20703,0 3.78907,-1.58203 1.58203,-1.60156 1.58203,-3.78906 z"
           style="font-style:normal;font-variant:normal;font-weight:normal;font-stretch:normal;font-size:40px;font-family:'Tw Cen MT';-inkscape-font-specification:'Tw Cen MT'"
           id="path5967" />
        <path
           d="m 276.28915,520.44119 0,-16.11328 3.32032,0 0,2.67578 q 1.46484,-1.62109 2.65625,-2.36328 1.1914,-0.76172 2.65625,-0.76172 2.1875,0 3.73047,1.44532 1.5625,1.44531 1.5625,3.47656 l 0,11.64062 -3.39844,0 0,-10.64453 q 0,-1.30859 -0.85938,-2.16797 -0.83984,-0.85937 -2.14843,-0.85937 -1.69922,0 -2.92969,1.44531 -1.23047,1.42578 -1.23047,3.45703 l 0,8.76953 -3.35938,0 z"
           style="font-style:normal;font-variant:normal;font-weight:normal;font-stretch:normal;font-size:40px;font-family:'Tw Cen MT';-inkscape-font-specification:'Tw Cen MT'"
           id="path5969" />
        <path
           d="m 104.37509,562.31619 q 0,-3.30078 2.59766,-5.85937 2.61719,-2.57813 5.99609,-2.57813 3.47656,0 6.07422,2.53907 2.59766,2.51953 2.59766,5.89843 0,3.39844 -2.5586,5.9961 -2.53906,2.57812 -5.8789,2.57812 -3.57422,0 -6.21094,-2.55859 -2.61719,-2.5586 -2.61719,-6.01563 z m 13.98438,0 q 0,-2.05078 -1.5625,-3.55468 -1.5625,-1.52344 -3.71094,-1.52344 -2.20703,0 -3.80859,1.54297 -1.58204,1.52343 -1.58204,3.65234 0,2.03125 1.60157,3.55469 1.62109,1.52344 3.78906,1.52344 2.10937,0 3.69141,-1.5625 1.58203,-1.5625 1.58203,-3.63282 z"
           style="font-style:normal;font-variant:normal;font-weight:normal;font-stretch:normal;font-size:40px;font-family:'Tw Cen MT';-inkscape-font-specification:'Tw Cen MT'"
           id="path5971" />
        <path
           d="m 129.08212,554.32791 0,3.24219 0,0 q 2.44141,-3.69141 6.25,-3.69141 3.125,0 5.3711,2.5 2.26562,2.48047 2.26562,5.9375 0,3.4961 -2.28515,6.03516 -2.28516,2.53906 -5.39063,2.53906 -1.79687,0 -3.45703,-0.9375 -1.64063,-0.9375 -2.71484,-2.71484 l 0,0 0,10.76172 -3.39844,0 0,-23.67188 3.35937,0 z m 10.33203,7.98828 q 0,-2.1289 -1.60156,-3.71093 -1.60156,-1.60157 -3.76953,-1.60157 -2.20703,0 -3.82812,1.58203 -1.60157,1.58204 -1.60157,3.73047 0,2.20703 1.58203,3.82813 1.60157,1.62109 3.76954,1.62109 2.24609,0 3.84765,-1.60156 1.60156,-1.60156 1.60156,-3.84766 z"
           style="font-style:normal;font-variant:normal;font-weight:normal;font-stretch:normal;font-size:40px;font-family:'Tw Cen MT';-inkscape-font-specification:'Tw Cen MT'"
           id="path5973" />
        <path
           d="m 146.7579,549.03494 q 0,-1.05468 0.78125,-1.8164 0.78125,-0.78125 1.85547,-0.78125 1.05469,0 1.81641,0.78125 0.78125,0.76172 0.78125,1.8164 0,1.07422 -0.78125,1.83594 -0.76172,0.76172 -1.81641,0.76172 -1.07422,0 -1.85547,-0.76172 -0.78125,-0.76172 -0.78125,-1.83594 z m 0.95704,5.29297 3.35937,0 0,16.11328 -3.35937,0 0,-16.11328 z"
           style="font-style:normal;font-variant:normal;font-weight:normal;font-stretch:normal;font-size:40px;font-family:'Tw Cen MT';-inkscape-font-specification:'Tw Cen MT'"
           id="path5975" />
        <path
           d="m 165.85947,556.24197 -2.26563,1.99219 q -0.8789,-0.625 -1.52344,-0.9375 -0.64453,-0.33203 -1.52343,-0.33203 -2.07032,0 -2.07032,1.52344 0,1.09375 2.61719,2.1289 2.63672,1.01563 3.78906,2.2461 1.15235,1.23047 1.15235,2.96875 0,2.03125 -1.66016,3.55469 -1.66015,1.5039 -3.90625,1.5039 -3.41797,0 -5.60547,-3.16406 l 2.67578,-1.28906 q 1.40625,1.36718 2.92969,1.36718 1.05469,0 1.83594,-0.5664 0.80078,-0.58594 0.80078,-1.34766 0,-1.34765 -2.77344,-2.42187 -2.77343,-1.07422 -3.84765,-2.16797 -1.05469,-1.11328 -1.05469,-2.73438 0,-2.01172 1.50391,-3.33984 1.52343,-1.34766 3.80859,-1.34766 2.28516,0 5.11719,2.36328 z"
           style="font-style:normal;font-variant:normal;font-weight:normal;font-stretch:normal;font-size:40px;font-family:'Tw Cen MT';-inkscape-font-specification:'Tw Cen MT'"
           id="path5977" />
        <path
           d="m 169.29697,545.08963 3.3789,0 0,16.30859 6.67969,-7.07031 4.39453,0 -6.97265,7.44141 7.05078,8.67187 -4.19922,0 -6.95313,-8.51562 0,8.51562 -3.3789,0 0,-25.35156 z"
           style="font-style:normal;font-variant:normal;font-weight:normal;font-stretch:normal;font-size:40px;font-family:'Tw Cen MT';-inkscape-font-specification:'Tw Cen MT'"
           id="path5979" />
        <path
           d="m 202.30478,563.03885 -13.75,0 q 0.44922,2.48047 2.03125,3.63281 1.60156,1.13281 3.47656,1.13281 2.89063,0 4.84375,-2.40234 l 2.48047,1.875 q -2.79297,3.61328 -7.48047,3.61328 -3.59375,0 -6.01562,-2.46094 -2.42188,-2.46093 -2.42188,-6.11328 0,-3.41797 2.44141,-5.91797 2.46094,-2.51953 5.99609,-2.51953 3.47656,0 5.95703,2.5586 2.48047,2.53906 2.44141,6.60156 z m -13.39844,-2.71484 9.84375,0 q -1.64062,-3.32032 -4.84375,-3.32032 -3.49609,0 -5,3.32032 z"
           style="font-style:normal;font-variant:normal;font-weight:normal;font-stretch:normal;font-size:40px;font-family:'Tw Cen MT';-inkscape-font-specification:'Tw Cen MT'"
           id="path5981" />
        <path
           d="m 206.69931,545.08963 3.39844,0 0,25.35156 -3.39844,0 0,-25.35156 z"
           style="font-style:normal;font-variant:normal;font-weight:normal;font-stretch:normal;font-size:40px;font-family:'Tw Cen MT';-inkscape-font-specification:'Tw Cen MT'"
           id="path5983" />
        <path
           d="m 214.33603,549.03494 q 0,-1.05468 0.78125,-1.8164 0.78125,-0.78125 1.85547,-0.78125 1.05469,0 1.8164,0.78125 0.78125,0.76172 0.78125,1.8164 0,1.07422 -0.78125,1.83594 -0.76171,0.76172 -1.8164,0.76172 -1.07422,0 -1.85547,-0.76172 -0.78125,-0.76172 -0.78125,-1.83594 z m 0.95703,5.29297 3.35938,0 0,16.11328 -3.35938,0 0,-16.11328 z"
           style="font-style:normal;font-variant:normal;font-weight:normal;font-stretch:normal;font-size:40px;font-family:'Tw Cen MT';-inkscape-font-specification:'Tw Cen MT'"
           id="path5985" />
        <path
           d="m 223.12509,549.07401 q 0,-1.07422 0.78125,-1.85547 0.78125,-0.78125 1.85547,-0.78125 1.07422,0 1.85547,0.78125 0.78125,0.78125 0.78125,1.85547 0,1.07421 -0.78125,1.875 -0.78125,0.78125 -1.85547,0.78125 -1.07422,0 -1.85547,-0.78125 -0.78125,-0.80079 -0.78125,-1.875 z m 0.95703,5.2539 3.39844,0 0,23.67188 -3.39844,0 0,-23.67188 z"
           style="font-style:normal;font-variant:normal;font-weight:normal;font-stretch:normal;font-size:40px;font-family:'Tw Cen MT';-inkscape-font-specification:'Tw Cen MT'"
           id="path5987" />
        <path
           d="m 246.03525,554.32791 3.39844,0 0,16.11328 -3.39844,0 0,-3.20312 q -2.48047,3.65234 -6.15235,3.65234 -3.18359,0 -5.44921,-2.5 -2.2461,-2.5 -2.2461,-6.07422 0,-3.3789 2.26563,-5.89843 2.28515,-2.53907 5.35156,-2.53907 1.89453,0 3.59375,1.03516 1.69922,1.03516 2.63672,2.69531 l 0,-3.28125 z m 0.44922,8.10547 q 0,-2.20703 -1.58203,-3.76953 -1.58204,-1.58203 -3.78907,-1.58203 -2.14843,0 -3.75,1.5625 -1.60156,1.5625 -1.60156,3.67187 0,2.28516 1.5625,3.88672 1.5625,1.60156 3.78906,1.60156 2.20703,0 3.78907,-1.58203 1.58203,-1.60156 1.58203,-3.78906 z"
           style="font-style:normal;font-variant:normal;font-weight:normal;font-stretch:normal;font-size:40px;font-family:'Tw Cen MT';-inkscape-font-specification:'Tw Cen MT'"
           id="path5989" />
        <path
           d="m 255.66415,549.64041 3.39844,0 0,4.6875 3.35938,0 0,3.10547 -3.35938,0 0,13.00781 -3.39844,0 0,-13.00781 -2.67578,0 0,-3.14453 2.67578,0 0,-4.64844 z"
           style="font-style:normal;font-variant:normal;font-weight:normal;font-stretch:normal;font-size:40px;font-family:'Tw Cen MT';-inkscape-font-specification:'Tw Cen MT'"
           id="path5991" />
        <path
           d="m 172.4415,604.32791 0,3.32031 0,0 q 1.13281,-1.99218 2.20703,-2.87109 1.09375,-0.89844 2.83203,-0.89844 0.48828,0 1.40625,0.23438 l -1.03516,3.39844 q -0.97656,-0.19532 -1.28906,-0.19532 -1.71875,0 -2.89062,1.21094 -1.15235,1.19141 -1.15235,2.98828 l 0,8.92578 -3.39843,0 0,-16.11328 3.32031,0 z"
           style="font-style:normal;font-variant:normal;font-weight:normal;font-stretch:normal;font-size:40px;font-family:'Tw Cen MT';-inkscape-font-specification:'Tw Cen MT'"
           id="path5993" />
        <path
           d="m 180.99619,604.32791 3.84765,0 5.83985,8.75 4.04296,-8.75 3.51563,0 -10.87891,23.67188 -3.55468,0 5.3125,-11.52344 -8.125,-12.14844 z"
           style="font-style:normal;font-variant:normal;font-weight:normal;font-stretch:normal;font-size:40px;font-family:'Tw Cen MT';-inkscape-font-specification:'Tw Cen MT'"
           id="path5995" />
      </g>
      <flowRoot
         xml:space="preserve"
         id="flowRoot4326"
         style="font-style:normal;font-weight:normal;line-height:0.01%;font-family:sans-serif;text-align:center;letter-spacing:0px;word-spacing:0px;text-anchor:middle;fill:#000000;fill-opacity:1;stroke:none;stroke-width:1px;stroke-linecap:butt;stroke-linejoin:miter;stroke-opacity:1"
         transform="translate(-334.82652,359.88927)"><flowRegion
           id="flowRegion4328"><rect
             id="rect4330"
             width="156.02116"
             height="225.93935"
             x="469.35825"
             y="84.808189" /></flowRegion><flowPara
           id="flowPara4332"
           style="font-size:25px;line-height:1.25"> </flowPara></flowRoot>
    </g>
  </g>
</svg>
