<?xml version="1.0" standalone="no"?>
<!DOCTYPE svg PUBLIC "-//W3C//DTD SVG 20010904//EN"
 "http://www.w3.org/TR/2001/REC-SVG-20010904/DTD/svg10.dtd">
<svg version="1.0" xmlns="http://www.w3.org/2000/svg"
 width="150.000000pt" height="150.000000pt" viewBox="0 0 150.000000 150.000000"
 preserveAspectRatio="xMidYMid meet">
<metadata>
Created by potrace 1.14, written by Peter Selinger 2001-2017
</metadata>
<g transform="translate(0.000000,150.000000) scale(0.100000,-0.100000)"
fill="#000000" stroke="none">
<path d="M72 1282 l-22 -3 2 -536 3 -536 35 -2 c19 -1 41 0 48 3 9 3 12 120
12 537 l0 533 -27 3 c-16 2 -38 3 -51 1z"/>
<path d="M672 1270 c-31 -30 -57 -84 -76 -165 -9 -38 -19 -76 -21 -82 -2 -7
-1 -13 3 -13 4 0 17 41 29 92 22 90 59 160 90 172 23 9 60 -19 83 -64 18 -35
60 -186 60 -216 0 -11 -107 -64 -128 -64 -16 0 -121 51 -128 61 -3 5 -9 7 -14
4 -4 -3 -24 2 -43 10 -59 24 -178 47 -219 42 -50 -7 -68 -22 -68 -59 0 -31 37
-108 52 -108 5 0 -3 20 -17 45 -65 110 20 141 213 80 l83 -26 -5 -37 c-3 -20
-6 -53 -6 -72 -1 -31 -7 -39 -56 -73 -42 -28 -62 -36 -82 -31 -23 4 -24 3 -10
-6 16 -10 9 -20 -61 -88 -116 -114 -143 -187 -81 -220 35 -18 131 -9 221 21
48 16 76 22 80 15 4 -6 10 -32 13 -58 8 -57 49 -166 73 -192 23 -26 53 -42 53
-29 0 5 -9 12 -20 16 -27 9 -75 113 -94 205 -8 41 -14 75 -13 76 11 7 122 54
128 54 5 0 37 -12 70 -27 47 -21 59 -31 56 -45 -3 -10 -1 -18 4 -18 5 0 9 7 9
16 0 11 5 14 18 9 146 -61 309 -69 313 -16 6 68 -14 103 -115 199 -74 70 -74
71 -53 86 60 41 149 143 163 186 13 42 13 49 -5 71 -19 24 -98 37 -127 21 -14
-8 -6 -9 31 -7 135 9 128 -78 -19 -217 -34 -32 -67 -58 -73 -58 -7 0 -40 20
-74 45 -34 25 -57 45 -52 45 9 0 8 71 -1 113 -2 9 2 17 9 17 8 0 17 5 21 11 4
7 0 9 -13 5 -18 -6 -22 0 -32 56 -35 183 -107 275 -169 218z m-9 -333 c15 -7
27 -15 27 -18 0 -7 -104 -69 -116 -69 -3 0 -3 24 0 53 3 28 5 55 6 59 0 7 27
-1 83 -25z m187 -33 c0 -30 -2 -54 -5 -54 -2 0 -27 14 -55 30 -28 17 -56 30
-63 30 -7 0 18 -18 55 -41 75 -44 79 -53 75 -141 -1 -31 1 -54 5 -52 5 3 8 3
8 1 0 -2 -26 -20 -57 -39 -108 -66 -96 -64 -174 -18 -60 37 -69 46 -69 72 0
18 -4 27 -10 23 -6 -4 -8 -16 -4 -27 7 -23 3 -22 -63 25 l-42 29 27 22 c15 12
40 30 55 39 l28 18 -4 -46 c-3 -25 -2 -45 2 -45 4 0 7 21 8 47 1 36 7 51 25
65 38 29 240 128 249 122 5 -3 9 -30 9 -60z m94 -139 l28 -23 -45 -31 c-25
-17 -48 -31 -50 -31 -3 0 -7 31 -9 69 l-3 69 25 -15 c14 -8 38 -25 54 -38z
m-439 -75 c47 -35 55 -45 55 -73 0 -18 3 -49 6 -69 l6 -36 -78 -25 c-106 -33
-167 -41 -209 -27 -30 10 -35 16 -35 44 0 21 12 48 37 81 37 50 139 145 155
145 5 0 33 -18 63 -40z m551 -18 c88 -85 114 -123 114 -166 0 -31 -4 -38 -27
-47 -36 -14 -154 3 -231 33 l-56 23 3 60 c1 33 6 66 10 73 9 17 101 82 115 82
6 0 38 -26 72 -58z m-366 -102 c0 -6 -104 -49 -108 -45 -1 1 -5 30 -9 64 l-6
62 62 -38 c33 -21 61 -40 61 -43z m166 72 c-3 -5 -6 -32 -7 -61 -2 -28 -5 -54
-9 -56 -3 -2 -31 7 -60 21 l-54 25 65 39 c69 42 73 44 65 32z"/>
<path d="M704 803 c-38 -7 -56 -35 -43 -70 18 -53 90 -51 103 3 9 33 -27 72
-60 67z m42 -46 c4 -14 1 -25 -12 -34 -23 -17 -29 -16 -48 3 -20 19 -20 29 -1
47 19 20 52 11 61 -16z"/>
<path d="M1208 1279 c-6 -4 16 -100 64 -267 85 -301 87 -230 -11 -575 -33
-120 -61 -221 -61 -225 0 -4 21 -7 46 -7 l47 0 77 270 c63 221 75 275 68 300
-5 17 -39 136 -75 265 -36 129 -67 237 -69 238 -5 7 -75 7 -86 1z"/>
<path d="M947 1053 c-4 -3 -6 -25 -6 -47 1 -23 4 -31 6 -18 2 12 11 22 19 22
8 0 14 5 14 11 0 5 -4 8 -9 4 -5 -3 -12 -1 -16 5 -3 6 4 10 17 10 18 0 20 2 8
10 -18 12 -24 12 -33 3z"/>
<path d="M325 860 c-3 -5 3 -18 15 -30 26 -26 25 -29 -2 -22 -20 5 -21 4 -9
-11 20 -25 56 -4 41 23 -6 11 -15 20 -21 20 -6 0 -7 5 -4 10 4 6 11 8 16 5 5
-4 9 -1 9 4 0 14 -37 14 -45 1z"/>
<path d="M786 418 c-3 -13 -6 -32 -6 -43 0 -16 2 -17 9 -5 6 8 7 18 4 24 -3 5
-1 6 5 2 7 -4 12 -14 12 -22 0 -19 10 -18 26 4 13 16 13 16 14 0 0 -10 4 -18
9 -18 5 0 4 19 -2 42 l-11 43 -12 -30 -12 -30 -11 28 c-13 33 -17 34 -25 5z"/>
<path d="M781 288 c-8 -18 -26 -43 -39 -55 -23 -21 -20 -32 3 -15 14 9 50 62
58 85 11 30 -8 18 -22 -15z"/>
</g>
</svg>
