<?xml version="1.0" encoding="UTF-8" standalone="no"?>
<!-- Created with Inkscape (http://www.inkscape.org/) -->

<svg
   xmlns:dc="http://purl.org/dc/elements/1.1/"
   xmlns:cc="http://creativecommons.org/ns#"
   xmlns:rdf="http://www.w3.org/1999/02/22-rdf-syntax-ns#"
   xmlns:svg="http://www.w3.org/2000/svg"
   xmlns="http://www.w3.org/2000/svg"
   xmlns:sodipodi="http://sodipodi.sourceforge.net/DTD/sodipodi-0.dtd"
   xmlns:inkscape="http://www.inkscape.org/namespaces/inkscape"
   width="2221.8235"
   height="2221.8235"
   id="svg3365"
   version="1.1"
   inkscape:version="0.91 r13725"
   viewBox="0 0 2221.8235 2221.8236"
   sodipodi:docname="Lateksii_logo_haalarimerkkiin_(17.3).svg">
  <defs
     id="defs5498">
    <clipPath
       clipPathUnits="userSpaceOnUse"
       id="clipPath4227">
      <rect
         style="fill:#c3447a;fill-opacity:1;stroke:none;stroke-opacity:1"
         id="rect4229"
         width="51.039307"
         height="66.234108"
         x="14.231068"
         y="12.795162" />
    </clipPath>
    <circle
       style="fill:#ffffff;stroke:#000000;stroke-opacity:1"
       id="path4182"
       cx="-500"
       cy="500"
       r="500"
       transform="scale(-1,1)" />
    <clipPath
       clipPathUnits="userSpaceOnUse"
       id="clipPath4227-6">
      <rect
         style="fill:#c3447a;fill-opacity:1;stroke:none;stroke-opacity:1"
         id="rect4229-6"
         width="51.039307"
         height="66.234108"
         x="14.231068"
         y="12.795162" />
    </clipPath>
    <circle
       style="fill:#c3447a;fill-opacity:1;stroke:none;stroke-opacity:1"
       id="path4184"
       cx="500"
       cy="500"
       r="440.52863" />
  </defs>
  <sodipodi:namedview
     inkscape:window-height="849"
     inkscape:window-width="1368"
     inkscape:pageshadow="2"
     inkscape:pageopacity="0.0"
     borderopacity="1.0"
     bordercolor="#666666"
     pagecolor="#ffffff"
     id="base"
     showgrid="false"
     showguides="true"
     inkscape:guide-bbox="true"
     inkscape:zoom="0.227"
     inkscape:cx="1333.1682"
     inkscape:cy="836.58617"
     inkscape:window-x="-8"
     inkscape:window-y="-8"
     inkscape:current-layer="layer3"
     inkscape:window-maximized="1"
     fit-margin-top="10"
     fit-margin-left="10"
     fit-margin-right="10"
     fit-margin-bottom="10">
    <sodipodi:guide
       orientation="0,1"
       position="1110.9118,1110.9118"
       id="guide5596"
       inkscape:label=""
       inkscape:color="rgb(0,0,255)" />
    <sodipodi:guide
       position="1110.9118,1110.9118"
       orientation="1,0"
       id="guide3374"
       inkscape:label=""
       inkscape:color="rgb(0,0,255)" />
  </sodipodi:namedview>
  <metadata
     id="metadata5594">
    <rdf:RDF>
      <cc:Work
         rdf:about="">
        <dc:format>image/svg+xml</dc:format>
        <dc:type
           rdf:resource="http://purl.org/dc/dcmitype/StillImage" />
        <dc:title />
      </cc:Work>
    </rdf:RDF>
  </metadata>
  <g
     inkscape:groupmode="layer"
     id="layer3"
     inkscape:label="Merge"
     transform="translate(610.9118,610.91165)">
    <g
       id="g10"
       transform="matrix(40.041637,0,0,-40.041637,-365.07152,1345.8612)">
      <g
         id="g12"
         transform="scale(0.1,0.1)">
        <path
           d="m 216.039,366.699 c -85.859,0 -155.4492,-69.601 -155.4492,-155.449 0,-85.852 69.5902,-155.457 155.4492,-155.457 85.84,0 155.449,69.605 155.449,155.457 0,85.848 -69.609,155.449 -155.449,155.449"
           style="fill:#ffffff;fill-opacity:1;fill-rule:nonzero;stroke:none"
           id="path14"
           inkscape:connector-curvature="0" />
        <path
           d="m 216.039,55.793 c -85.859,0 -155.4492,69.605 -155.4492,155.457 0,85.848 69.5902,155.449 155.4492,155.449 85.84,0 155.449,-69.601 155.449,-155.449 0,-85.852 -69.609,-155.457 -155.449,-155.457 m 213.359,178.488 c -4.414,1.84 -40.703,16.75 -45.742,18.84 -1.953,7.82 -4.453,15.418 -7.422,22.785 2.891,4.676 23.457,38.035 25.957,42.137 1.387,2.269 1.387,2.418 -11.386,20.187 -12.95,17.629 -13.086,17.676 -15.684,17.063 -4.687,-1.113 -42.988,-10.422 -48.144,-11.672 -6.094,5.129 -12.539,9.832 -19.317,14.078 -0.41,5.371 -3.398,44.571 -3.789,49.352 -0.215,2.672 -0.312,2.777 -21.074,9.668 -20.84,6.64 -20.977,6.601 -22.735,4.57 -3.124,-3.637 -28.652,-33.687 -32.07,-37.73 -3.965,0.269 -7.933,0.41 -11.953,0.41 -4.019,0 -8.008,-0.141 -11.945,-0.41 -3.426,4.054 -28.953,34.093 -32.09,37.73 -1.727,2.031 -1.883,2.07 -22.723,-4.57 -20.761,-6.891 -20.863,-6.996 -21.074,-9.668 -0.387,-4.781 -3.379,-43.981 -3.789,-49.352 -6.777,-4.246 -13.219,-8.949 -19.316,-14.078 -5.1293,1.25 -43.4692,10.559 -48.145,11.672 -2.5976,0.613 -2.7382,0.566 -15.707,-17.063 C 28.5,320.461 28.5,320.312 29.8945,318.043 c 2.4727,-4.102 23.0352,-37.461 25.9375,-42.137 -2.9726,-7.367 -5.4492,-14.965 -7.3906,-22.785 -5.0625,-2.09 -41.35156,-17 -45.76171,-18.84 C 0.199219,233.254 0.121094,233.129 0,211.25 0.121094,189.375 0.199219,189.258 2.67969,188.223 7.08984,186.387 43.3789,171.465 48.4414,169.375 c 1.9414,-7.813 4.418,-15.43 7.3906,-22.773 C 52.9297,141.914 32.3672,108.555 29.8945,104.473 28.5,102.188 28.5,102.043 41.25,84.2773 54.2188,66.6328 54.3594,66.5938 56.957,67.1953 c 4.6758,1.1133 43.0157,10.4414 48.145,11.6914 6.097,-5.1367 12.539,-9.8359 19.316,-14.0898 0.41,-5.3711 3.402,-44.5742 3.789,-49.3594 0.211,-2.6563 0.313,-2.7813 21.074,-9.66797 20.84,-6.636718 20.996,-6.597655 22.723,-4.57031 3.137,3.65234 28.664,33.69138 32.09,37.72658 3.937,-0.2656 7.926,-0.4024 11.945,-0.4024 4.02,0 7.988,0.1368 11.953,0.4024 3.418,-4.0352 28.946,-34.07424 32.07,-37.72658 1.758,-2.027345 1.895,-2.066408 22.735,4.57031 20.762,6.88667 20.859,7.01167 21.074,9.66797 0.391,4.7852 3.379,43.9883 3.789,49.3594 6.778,4.2539 13.223,8.9531 19.317,14.0898 5.156,-1.25 43.457,-10.5781 48.144,-11.6914 2.598,-0.6015 2.734,-0.5625 15.684,17.082 12.773,17.7657 12.773,17.9107 11.386,20.1957 -2.5,4.082 -23.066,37.441 -25.957,42.129 2.969,7.343 5.469,14.96 7.422,22.773 5.039,2.09 41.328,17.012 45.742,18.848 2.481,1.035 2.559,1.152 2.688,23.027 -0.129,21.879 -0.207,22.004 -2.688,23.031"
           style="fill:#000000;fill-opacity:1;fill-rule:nonzero;stroke:none"
           id="path16"
           inkscape:connector-curvature="0" />
      </g>
    </g>
    <circle
       r="623.04279"
       cx="-500"
       cy="500"
       transform="scale(-1,1)"
       id="circle4239"
       style="fill:#ffffff;stroke:none;stroke-opacity:1" />
    <circle
       style="fill:#ffffff;stroke:none;stroke-opacity:1"
       id="circle4183"
       transform="scale(-1,-1)"
       cy="-500"
       cx="-500"
       r="623.04279" />
    <circle
       style="fill:#d33479;fill-opacity:1;stroke:none;stroke-opacity:1"
       id="circle4185"
       cx="500.00006"
       cy="500.00003"
       r="613.70044" />
    <g
       id="g4221"
       transform="matrix(12.222495,0,0,12.222495,14.01696,-61.063592)"
       clip-path="url(#clipPath4227-6)">
      <path
         style="font-style:normal;font-variant:normal;font-weight:normal;font-stretch:normal;font-size:100px;font-family:FreeSerif;-inkscape-font-specification:FreeSerif;fill:#000000;fill-opacity:1;stroke:none;stroke-width:1px;stroke-linecap:butt;stroke-linejoin:miter;stroke-opacity:1"
         id="text2403"
         d="m 65.261035,30.304381 0,-17.499775 -50.999344,0 0,17.499775 1.499981,0 c 0.258323,-3.004076 0.866648,-5.270712 1.824977,-6.799913 0.95831,-1.52909 3.116613,-2.295746 6.474916,-2.29997 l 31.299597,0 c 3.154075,-0.002 5.37071,0.752132 6.649913,2.262473 1.279095,1.510452 1.895754,3.789586 1.849978,6.83741 z m -9.799874,26.39966 0,-21.599722 -1.399982,0 c 0.08328,0.30004 0.116618,0.600035 0.1,0.899988 -0.0688,1.533355 -0.706288,2.791671 -1.912478,3.774952 -1.206278,0.983359 -2.568758,1.491685 -4.087445,1.52498 l -16.29979,0 c -1.908332,-0.02705 -3.366646,-0.597873 -4.374945,-1.71248 -1.008339,-1.114529 -1.516664,-2.610341 -1.524979,-4.48744 l -1.399982,0 0,21.599722 1.399982,0 0,-0.599993 c 0.02082,-1.737452 0.554142,-3.162433 1.599979,-4.274946 1.045799,-1.112459 2.479112,-1.68745 4.299945,-1.724976 l 16.29979,0 c 2.039514,0.03753 3.535326,0.662522 4.487441,1.874977 0.952027,1.21251 1.422854,2.787487 1.412483,4.724938 z m 9.799874,22.299713 0,-17.499775 -1.399982,0 0,0.699991 c -0.0063,2.274985 -0.618798,4.224957 -1.837477,5.849923 -1.218787,1.624988 -3.006262,2.474977 -5.362431,2.549969 l -32.299584,0 c -3.027057,-0.01041 -5.22286,-0.789565 -6.587416,-2.337471 -1.364575,-1.547884 -2.035399,-3.80202 -2.012473,-6.762412 l -1.499981,0 0,17.499775 z"
         inkscape:connector-curvature="0"
         sodipodi:nodetypes="cccccccccccccccsccccccccsccccccccccccccccc" />
    </g>
    <circle
       r="0"
       cx="-500"
       cy="-500"
       transform="scale(-1,-1)"
       id="ellipse4230"
       style="fill:#ffffff;stroke:none;stroke-opacity:1" />
    <g
       style="font-style:normal;font-weight:normal;font-size:56.25px;line-height:125%;font-family:sans-serif;letter-spacing:0px;word-spacing:0px;fill:#000000;fill-opacity:1;stroke:none;stroke-width:1px;stroke-linecap:butt;stroke-linejoin:miter;stroke-opacity:1"
       id="text4163"
       transform="matrix(-0.46148435,-0.88714835,0.88714835,-0.46148435,273.92729,1096.8148)">
      <path
         d="m 1386.9885,530.33465 -2.7234,51.13604 q -0.1006,1.88941 0.7008,2.91003 0.8013,1.02062 2.963,1.74697 l -0.1039,1.95036 -21.5149,-1.14581 0.1039,-1.95036 q 2.2266,-0.49264 3.1318,-1.42237 0.9052,-0.92974 1.0059,-2.81916 l 3.8983,-73.19949 1.9504,0.10387 q 0.4926,2.22661 1.4223,3.13183 0.9298,0.90522 2.8192,1.00584 l 70.3958,3.74903 q 1.8894,0.10063 2.9101,-0.70072 1.0206,-0.80135 1.7469,-2.96305 l 1.9504,0.10387 -1.3828,25.96418 -1.9503,-0.10386 q -0.4317,-2.22337 -1.4224,-3.13184 -0.9297,-0.90522 -2.8192,-1.00584 l -63.0819,-3.35952 z"
         style="font-style:normal;font-variant:normal;font-weight:normal;font-stretch:normal;font-size:125.00000763px;font-family:'Copperplate Gothic Bold';-inkscape-font-specification:'Copperplate Gothic Bold, '"
         id="path4186"
         inkscape:connector-curvature="0" />
      <path
         d="m 1379.9672,664.06322 6.0127,-37.36106 -10.6777,-7.40591 q -2.2261,-1.53285 -3.6121,-1.75591 -2.6514,-0.42671 -4.3256,3.44583 l -1.9283,-0.31033 4.3835,-27.23742 1.9283,0.31033 q 0.094,2.48798 1.0957,3.94739 1.0015,1.45942 4.2348,3.64891 l 58.3441,40.42358 q 2.7802,1.93113 4.588,2.22207 2.772,0.44611 4.5396,-2.855 l 1.9284,0.31033 -4.6939,29.16573 -1.9283,-0.31033 q -0.4522,-3.72019 -2.9831,-4.12751 -1.7476,-0.28124 -4.1614,0.50487 l -68.4363,21.13282 q -4.3574,1.33881 -6.1063,2.60286 -1.6887,1.27374 -2.5781,3.72707 l -1.9283,-0.31034 4.8684,-30.2504 1.9283,0.31033 q 0.023,4.08382 3.096,4.57842 1.2655,0.20366 3.9301,-0.60392 l 12.4815,-3.80241 z m 12.1026,-3.36882 31.4295,-8.6042 -27.1139,-18.2114 -4.3156,26.8156 z"
         style="font-style:normal;font-variant:normal;font-weight:normal;font-stretch:normal;font-size:125.00000763px;font-family:'Copperplate Gothic Bold';-inkscape-font-specification:'Copperplate Gothic Bold, '"
         id="path4188"
         inkscape:connector-curvature="0" />
      <path
         d="m 1408.9153,752.13217 -61.0312,-16.30378 q -1.828,-0.48833 -2.992,0.0852 -1.164,0.57351 -2.3208,2.53881 l -1.887,-0.50408 6.7106,-25.1201 1.8869,0.50408 q 0.023,2.28035 0.7456,3.35793 0.7229,1.07758 2.5509,1.56591 l 61.0312,16.30378 6.6791,-25.00216 q 0.4726,-1.76902 -0.101,-2.93304 -0.5145,-1.14826 -2.4798,-2.30502 l 0.5041,-1.88695 20.8155,5.56061 -0.5041,1.88696 q -2.3551,0.0658 -3.4169,0.72977 -1.0776,0.72295 -1.5502,2.49197 l -18.0365,67.51764 q -0.4883,1.82799 0.085,2.992 0.5735,1.16401 2.5977,2.33653 l -0.504,1.88695 -20.8155,-5.56061 0.504,-1.88696 q 2.2804,-0.0226 3.299,-0.76128 1.0776,-0.72294 1.5659,-2.55093 l 6.6633,-24.9432 z"
         style="font-style:normal;font-variant:normal;font-weight:normal;font-stretch:normal;font-size:125.00000763px;font-family:'Copperplate Gothic Bold';-inkscape-font-specification:'Copperplate Gothic Bold, '"
         id="path4190"
         inkscape:connector-curvature="0" />
      <path
         d="m 1356.9918,807.08237 -21.3337,-8.121 -19.0648,50.08293 q -0.6514,1.71126 -0.2003,2.92793 0.4512,1.21667 2.2876,2.56879 l -0.6949,1.82535 -20.1358,-7.66501 0.6948,-1.82535 q 2.2707,0.21128 3.4167,-0.3974 1.146,-0.60867 1.7974,-2.31994 l 26.9252,-70.73216 1.8254,0.69485 q -0.2113,2.27065 0.3974,3.41666 0.6087,1.14601 2.377,1.81915 l 65.8836,25.07955 q 1.7683,0.67313 2.9849,0.22197 1.2167,-0.45117 2.5688,-2.28755 l 1.8254,0.69485 -26.4041,69.36315 q -0.6515,1.71126 -0.2003,2.92793 0.5082,1.23838 2.3446,2.5905 l -0.6948,1.82535 -20.1359,-7.66501 0.6948,-1.82534 q 2.2137,0.18956 3.3597,-0.41912 1.146,-0.60867 1.7974,-2.31994 l 18.5437,-48.71392 -18.4817,-7.0353 -12.0295,31.6013 q -0.6514,1.71126 -0.2002,2.92793 0.4512,1.21667 2.2875,2.56879 l -0.6948,1.82534 -19.6795,-7.49129 0.6948,-1.82535 q 2.2136,0.18957 3.3596,-0.41911 1.2031,-0.58697 1.8545,-2.29823 l 12.0295,-31.6013 z"
         style="font-style:normal;font-variant:normal;font-weight:normal;font-stretch:normal;font-size:125.00000763px;font-family:'Copperplate Gothic Bold';-inkscape-font-specification:'Copperplate Gothic Bold, '"
         id="path4192"
         inkscape:connector-curvature="0" />
      <path
         d="m 1315.0093,910.57929 -3.339,-15.78927 -19.8637,-10.22038 q -1.6825,-0.86566 -2.996,-0.58057 -1.2873,0.3673 -2.7531,2.01552 l -1.7367,-0.89359 11.8958,-23.12011 1.7368,0.89359 q -0.4626,2.23306 0.015,3.43966 0.4774,1.20661 2.1599,2.07227 l 62.7391,32.28078 q 1.6281,0.83774 2.8875,0.52471 1.2593,-0.31302 2.8073,-1.98759 l 1.7367,0.89359 -11.8959,23.12011 -1.7367,-0.89359 q 0.5168,-2.20513 -0.015,-3.43966 -0.4775,-1.20661 -2.1056,-2.04435 l -25.9423,-13.34793 9.2175,43.31854 q 0.6476,3.01022 1.6788,3.54078 1.5739,0.80982 3.7906,-2.03082 l 1.7367,0.89358 -15.5819,30.28409 -1.7367,-0.89359 q 0.5974,-2.09501 0.5278,-3.16042 -0.07,-1.0654 -1.2611,-6.62058 l -1.3232,-5.96616 -7.2867,-35.59832 -49.0428,10.87113 q -6.8145,1.50454 -9.1192,2.51522 -2.2783,1.09288 -4.0808,3.52884 l -1.7367,-0.89359 14.8838,-28.92727 1.7367,0.89359 q -0.883,3.18361 0.5823,3.93757 0.7599,0.39095 5.3566,-0.53866 l 38.0642,-8.07712 z"
         style="font-style:normal;font-variant:normal;font-weight:normal;font-stretch:normal;font-size:125.00000763px;font-family:'Copperplate Gothic Bold';-inkscape-font-specification:'Copperplate Gothic Bold, '"
         id="path4194"
         inkscape:connector-curvature="0" />
      <path
         d="m 1270.4714,1057.0476 -10.8613,-19.1015 1.7569,-0.8875 q 0.4756,0.3874 0.7811,0.5893 1.7314,1.1441 5.6689,-0.4971 12.3038,-4.8917 20.3795,-17.113 3.5667,-5.3978 4.9683,-10.3974 0.9668,-3.6773 0.1749,-6.9074 -0.8255,-3.17913 -3.2188,-4.76062 -3.9211,-2.59094 -8.4762,1.20266 -2.328,1.97316 -8.4593,9.48046 l -6.0975,7.4564 q -5.4747,6.6244 -9.6924,10.1289 -4.2514,3.5553 -8.8992,5.3856 -4.7833,1.8139 -10.1694,1.108 -5.4197,-0.655 -10.0536,-3.717 -7.3328,-4.8454 -9.9068,-13.3498 -2.3675,-7.7096 1.0931,-18.3716 2.5575,-7.96672 7.6384,-15.65597 9.1188,-13.7999 24.6219,-22.86903 3.2083,-1.97677 3.5784,-2.53692 0.4374,-0.66198 0.2593,-2.82807 l 1.7396,-0.97202 12.079,18.80875 -1.6887,1.00566 q -0.4583,-0.30283 -0.662,-0.43743 -2.2915,-1.51418 -5.6735,-0.60318 -5.1406,1.35833 -11.8555,6.8705 -6.715,5.51217 -10.8201,11.72467 -4.4753,6.77264 -5.3467,13.07354 -0.4767,3.4891 0.568,6.4473 1.0956,2.9918 3.3871,4.506 3.4627,2.2881 7.3958,-0.4534 2.7345,-1.924 8.8157,-9.2449 l 5.9967,-7.30367 q 6.0303,-7.35456 8.8967,-10.1425 2.9173,-2.75428 6.7003,-4.93655 5.3536,-3.11973 11.6863,-2.73931 5.7061,0.3322 11.053,3.8653 8.8095,5.8212 10.5595,15.68323 2.3382,12.9575 -8.1601,28.8452 -4.408,6.6708 -9.5852,11.5165 -5.1262,4.8793 -14.4283,11.0961 -3.1228,2.1796 -3.5603,2.8416 -0.7066,1.0693 -0.4775,3.2691 l -1.706,0.9211 z"
         style="font-style:normal;font-variant:normal;font-weight:normal;font-stretch:normal;font-size:125.00000763px;font-family:'Copperplate Gothic Bold';-inkscape-font-specification:'Copperplate Gothic Bold, '"
         id="path4196"
         inkscape:connector-curvature="0" />
      <path
         d="m 1201.338,1031.6518 55.7769,43.2109 q 1.4475,1.1214 2.7428,1.0439 1.2953,-0.077 3.1235,-1.4406 l 1.544,1.1962 -15.9238,20.5544 -1.544,-1.1961 q 0.9115,-2.0734 0.6145,-3.3844 -0.2487,-1.2736 -1.6962,-2.395 l -55.7769,-43.2108 q -1.4957,-1.1588 -2.8393,-1.1187 -1.3327,0.1256 -3.0752,1.478 l -1.544,-1.1962 15.9237,-20.5544 1.544,1.1961 q -0.8631,2.1108 -0.6145,3.3844 0.2487,1.2735 1.7445,2.4323 z"
         style="font-style:normal;font-variant:normal;font-weight:normal;font-stretch:normal;font-size:125.00000763px;font-family:'Copperplate Gothic Bold';-inkscape-font-specification:'Copperplate Gothic Bold, '"
         id="path4198"
         inkscape:connector-curvature="0" />
      <path
         d="m 1175.4551,1064.1693 53.6739,45.7969 q 1.3929,1.1885 2.6904,1.1723 1.2975,-0.016 3.188,-1.2915 l 1.4858,1.2678 -16.8767,19.7794 -1.4858,-1.2677 q 1.0084,-2.028 0.7737,-3.3516 -0.1883,-1.2839 -1.5812,-2.4724 l -53.6739,-45.7968 q -1.4394,-1.2282 -2.7833,-1.2516 -1.3372,0.063 -3.1416,1.3311 l -1.4858,-1.2677 16.8767,-19.7795 1.4858,1.2677 q -0.9619,2.0677 -0.7736,3.3516 0.1882,1.2839 1.6276,2.512 z"
         style="font-style:normal;font-variant:normal;font-weight:normal;font-stretch:normal;font-size:125.00000763px;font-family:'Copperplate Gothic Bold';-inkscape-font-specification:'Copperplate Gothic Bold, '"
         id="path4200"
         inkscape:connector-curvature="0" />
      <path
         d="m 1132.1906,1151.5202 -18.8192,-20.2559 q -1.2463,-1.3415 -2.5785,-1.52 -1.3355,-0.092 -3.2744,0.9593 l -1.3294,-1.4309 19.0486,-17.6975 1.3294,1.4309 q -1.1943,1.9427 -1.1556,3.2397 0.039,1.2971 1.285,2.6385 l 48.0242,51.6906 q 1.2879,1.3861 2.5786,1.52 1.2907,0.1338 3.3159,-0.9146 l 1.3294,1.4309 -38.1867,35.4781 q -6.9755,6.4808 -11.7923,9.4563 -4.8616,3.0172 -9.7717,3.8299 -5.6927,0.9568 -11.134,-1.4026 -5.2272,-2.3084 -9.2984,-6.6905 -13.8756,-14.9348 0.3457,-32.8962 l -27.5113,-5.8485 q -7.2429,-1.5188 -9.8785,-1.4861 -2.6388,0.1189 -4.8651,1.9373 l -1.3294,-1.4309 22.0893,-20.5224 1.3293,1.4308 q -1.9481,2.4765 -0.7849,3.7285 0.7478,0.8049 5.7159,1.9377 l 29.0418,6.5094 16.2763,-15.1218 z m 9.3473,10.0608 -20.5689,19.11 q -4.5609,4.2375 -6.1897,6.2506 -1.6288,2.0131 -2.4045,4.3167 -1.695,4.9906 2.7501,9.7751 4.4452,4.7845 9.5468,3.4605 2.4406,-0.6012 4.4816,-2.0809 2.0379,-1.3935 6.6882,-5.714 l 20.5689,-19.11 -14.8725,-16.008 z"
         style="font-style:normal;font-variant:normal;font-weight:normal;font-stretch:normal;font-size:125.00000763px;font-family:'Copperplate Gothic Bold';-inkscape-font-specification:'Copperplate Gothic Bold, '"
         id="path4202"
         inkscape:connector-curvature="0" />
      <path
         d="m 1036.0974,1233.4815 -17.0126,-22.7934 q -1.1317,-1.5163 -2.4006,-1.7878 -1.3178,-0.235 -3.4438,0.5902 l -1.1682,-1.5653 20.9836,-15.6618 1.1683,1.5652 q -1.3958,1.8034 -1.5454,3.1337 -0.1496,1.3302 0.9822,2.8465 l 17.0126,22.7934 44.2419,14.275 q 5.7087,1.8321 8.3085,1.948 2.5874,0.2013 5.0076,-1.1481 l 1.1682,1.5652 -26.364,19.6777 -1.1683,-1.5652 q 2.8756,-2.984 1.0137,-5.4786 -0.6571,-0.8804 -4.8896,-2.3673 l -25.3944,-8.9212 0.9869,27.1386 q 0.1485,4.3826 0.9152,5.4098 0.8397,1.125 2.3042,1.2505 1.5011,0.1744 3.1999,-0.7128 l 1.1683,1.5652 -25.826,19.2761 -1.1683,-1.5652 q 1.982,-1.9363 2.574,-4.5107 0.5795,-2.4889 0.4469,-8.4828 l -1.1008,-46.4749 z"
         style="font-style:normal;font-variant:normal;font-weight:normal;font-stretch:normal;font-size:125.00000763px;font-family:'Copperplate Gothic Bold';-inkscape-font-specification:'Copperplate Gothic Bold, '"
         id="path4204"
         inkscape:connector-curvature="0" />
    </g>
    <circle
       style="fill:#ffffff;fill-opacity:0;stroke:#000000;stroke-width:24;stroke-miterlimit:4;stroke-dasharray:none;stroke-opacity:1"
       id="circle4185-1"
       cx="499.99994"
       cy="500.00021"
       r="1087.6201" />
    <circle
       style="fill:#ffffff;fill-opacity:0;stroke:#000000;stroke-width:8;stroke-miterlimit:4;stroke-dasharray:none;stroke-opacity:1"
       id="circle4185-1-1"
       cx="-499.99994"
       cy="500.00009"
       r="902.9762"
       transform="scale(-1,1)" />
    <g
       transform="matrix(0.38898594,-0.92124369,0.92124369,0.38898594,-151.71628,895.23255)"
       style="font-style:normal;font-weight:normal;font-size:56.25px;line-height:125%;font-family:sans-serif;letter-spacing:0px;word-spacing:0px;fill:#000000;fill-opacity:1;stroke:none;stroke-width:1px;stroke-linecap:butt;stroke-linejoin:miter;stroke-opacity:1"
       id="text4180">
      <path
         d="m -388.8868,528.93599 2.48268,51.14828 q 0.0917,1.88986 0.99256,2.82385 0.90084,0.93399 3.12511,1.43709 l 0.0947,1.95083 -21.52007,1.04456 -0.0947,-1.95083 q 2.1651,-0.71616 2.97124,-1.733 0.80614,-1.01684 0.71441,-2.90671 l -3.55388,-73.21702 1.95083,-0.0947 q 0.71616,2.16509 1.733,2.97123 1.01684,0.80615 2.90671,0.71441 l 70.41271,-3.41775 q 1.88986,-0.0917 2.82385,-0.99257 0.93399,-0.90083 1.43709,-3.1251 l 1.95083,-0.0947 1.26057,25.9704 -1.95082,0.0947 q -0.6552,-2.16805 -1.73301,-2.97124 -1.01684,-0.80614 -2.9067,-0.71441 l -63.0971,3.06267 z"
         style="font-style:normal;font-variant:normal;font-weight:normal;font-stretch:normal;font-size:125px;font-family:'Copperplate Gothic Bold';-inkscape-font-specification:'Copperplate Gothic Bold, ';letter-spacing:10.30000019px;word-spacing:-1.37px"
         id="path4191" />
      <path
         d="m -308.08316,676.3671 -46.05792,7.66817 q -13.0648,2.17516 -20.36899,-1.55879 -13.12347,-6.72512 -17.64418,-33.87822 -3.26775,-19.6273 1.31982,-31.0955 2.66019,-6.6923 8.59094,-10.09285 5.88057,-3.33031 14.55029,-4.77373 l 46.05792,-7.66818 q 1.8664,-0.31073 2.68937,-1.314 0.82298,-1.00327 1.06418,-3.27094 l 1.92661,-0.32076 4.28014,25.70814 -1.9266,0.32076 q -0.90272,-2.07721 -2.07658,-2.80991 -1.10364,-0.68251 -2.97004,-0.37177 l -41.00058,6.82618 q -7.10436,1.1828 -10.40581,2.53684 -3.24126,1.34401 -5.16825,3.89235 -5.17877,6.80224 -2.85326,20.77013 2.33554,14.0281 9.43887,18.78549 2.63868,1.72633 6.14055,1.94768 3.56207,0.21133 10.66643,-0.97147 l 41.00058,-6.82618 q 1.8664,-0.31074 2.68937,-1.31401 0.82297,-1.00327 1.06418,-3.27094 l 1.92661,-0.32076 4.02955,24.20299 -1.92661,0.32076 q -0.96292,-2.0672 -2.06655,-2.74971 -1.10364,-0.68251 -2.97004,-0.37177 z"
         style="font-style:normal;font-variant:normal;font-weight:normal;font-stretch:normal;font-size:125px;font-family:'Copperplate Gothic Bold';-inkscape-font-specification:'Copperplate Gothic Bold, ';letter-spacing:10.30000019px;word-spacing:-1.37px"
         id="path4193" />
      <path
         d="m -298.52505,738.72824 -60.71653,17.43923 q -1.81857,0.52234 -2.52129,1.61322 -0.70272,1.09088 -0.68277,3.37125 l -1.87722,0.53918 -7.17789,-24.99057 1.87723,-0.53918 q 1.19321,1.94338 2.36772,2.49508 1.1745,0.55169 2.99307,0.0294 l 60.71653,-17.43923 -7.14419,-24.87325 q -0.50548,-1.7599 -1.59636,-2.46262 -1.03222,-0.71957 -3.31259,-0.69962 l -0.53918,-1.87723 20.70815,-5.94787 0.53918,1.87723 q -1.9852,1.26872 -2.55374,2.38457 -0.5517,1.1745 -0.0462,2.9344 l 19.29267,67.1695 q 0.52234,1.81856 1.61322,2.52128 1.09087,0.70272 3.42991,0.66593 l 0.53919,1.87722 -20.70816,5.94787 -0.53918,-1.87722 q 1.94339,-1.19322 2.43642,-2.35087 0.55169,-1.17451 0.0294,-2.99307 l -7.12734,-24.81459 z"
         style="font-style:normal;font-variant:normal;font-weight:normal;font-stretch:normal;font-size:125px;font-family:'Copperplate Gothic Bold';-inkscape-font-specification:'Copperplate Gothic Bold, ';letter-spacing:10.30000019px;word-spacing:-1.37px"
         id="path4195" />
      <path
         d="m -313.93163,855.39648 21.32316,46.28918 q 0.79163,1.71852 1.97633,2.24799 1.18469,0.52946 3.43576,0.1645 l 0.81717,1.77396 -20.73312,9.55073 -0.81717,-1.77396 q 1.74033,-1.47368 2.10785,-2.71817 0.36752,-1.2445 -0.42412,-2.96302 l -27.14552,-58.92862 q -1.30238,-2.82725 -2.42727,-3.51866 -1.1249,-0.69141 -3.57217,-0.16886 l -0.81718,-1.77396 q 2.74627,-1.33227 3.52238,-1.68978 7.09583,-3.2687 12.43759,-3.7806 10.81994,-1.01944 21.41738,4.91799 5.44572,3.06899 15.01413,11.29483 l 8.58429,7.40238 q 6.08785,5.19239 10.63106,6.59394 4.62418,1.43145 9.05907,-0.61149 5.04469,-2.32384 6.04137,-7.01654 1.07766,-4.66281 -1.96121,-11.25971 -3.70282,-8.03824 -10.83087,-13.15465 -6.85961,-4.97128 -10.85101,-3.13264 -0.94241,0.43413 -3.08389,2.49579 l -1.83684,-0.63225 9.11741,-22.07505 1.83248,0.76866 q -0.0275,2.56624 0.4322,3.56409 0.40859,0.88697 1.10308,1.37345 0.6945,0.48648 3.46875,1.6949 16.20638,7.31844 24.45474,25.22432 5.92452,12.86119 3.1544,23.478 -2.82992,10.77875 -13.52909,15.70734 -10.53287,4.85197 -20.85441,0.53465 -6.7631,-2.86535 -14.30783,-9.46981 l -7.75774,-6.77513 q -1.27812,-1.02403 -5.33357,-4.86785 -4.98413,-4.69282 -7.55345,-6.33165 -2.51388,-1.66436 -6.09414,-2.4343 z"
         style="font-style:normal;font-variant:normal;font-weight:normal;font-stretch:normal;font-size:125px;font-family:'Copperplate Gothic Bold';-inkscape-font-specification:'Copperplate Gothic Bold, ';letter-spacing:10.30000019px;word-spacing:-1.37px"
         id="path4197" />
      <path
         d="m -200.80732,922.31721 q 8.3803,14.11865 4.74063,28.91297 -4.10897,16.63438 -22.16405,27.3512 -5.66845,3.36458 -12.42897,5.24805 -6.76052,1.88347 -12.68433,1.7088 -10.39291,-0.29008 -18.97121,-5.77394 -7.57632,-4.87198 -12.6232,-13.37466 -8.3803,-14.11865 -4.65699,-28.89164 1.81323,-7.10933 5.96499,-12.90959 6.1743,-8.49128 15.67421,-14.13007 12.8065,-7.60146 25.63815,-7.26839 10.142,0.22609 18.91873,5.80509 7.28443,4.61937 12.59204,13.32218 z m -12.17668,7.22762 q -4.95341,-8.34523 -15.28232,-8.88624 -9.58599,-0.48514 -19.76821,5.55865 -10.18223,6.04378 -14.34749,14.69115 -4.47205,9.3263 0.51251,17.72401 5.01572,8.4502 15.31348,8.93872 9.58598,0.48514 19.45329,-5.37172 10.6546,-6.32417 14.66241,-14.87807 4.39823,-9.21152 -0.54367,-17.7765 z"
         style="font-style:normal;font-variant:normal;font-weight:normal;font-stretch:normal;font-size:125px;font-family:'Copperplate Gothic Bold';-inkscape-font-specification:'Copperplate Gothic Bold, ';letter-spacing:10.30000019px;word-spacing:-1.37px"
         id="path4199" />
      <path
         d="m -192.00558,993.322 17.85316,-13.1203 1.15661,1.57383 q -1.42216,1.87833 -1.60172,2.76774 -0.17957,0.88941 0.57946,1.92224 0.36144,0.49182 1.20876,1.23252 l 4.1904,3.43451 2.90176,-2.1325 q 1.47546,-1.08432 1.75636,-2.35118 0.2809,-1.26686 -0.52846,-3.39886 l 1.57383,-1.15661 15.07209,20.50901 -1.57384,1.1566 q -1.79301,-1.4091 -3.08594,-1.5194 -1.24375,-0.1464 -2.7684,0.9741 l -56.8547,41.7826 q -1.52465,1.1204 -1.80555,2.3873 -0.2809,1.2669 0.52847,3.3989 l -1.57383,1.1566 -15.07209,-20.509 1.57383,-1.1566 q 1.79301,1.4091 3.08595,1.5193 1.29293,0.1103 2.81758,-1.0102 l 42.49348,-31.22849 -4.52874,-3.79182 q -1.58621,-1.33386 -2.86611,-1.52943 -1.24375,-0.14639 -3.37575,0.66297 l -1.15661,-1.57383 z"
         style="font-style:normal;font-variant:normal;font-weight:normal;font-stretch:normal;font-size:125px;font-family:'Copperplate Gothic Bold';-inkscape-font-specification:'Copperplate Gothic Bold, ';letter-spacing:10.30000019px;word-spacing:-1.37px"
         id="path4201" />
      <path
         d="m -83.085886,1084.2851 -21.993414,5.4796 -0.51753,-1.8393 q 1.3794,-0.8418 1.96645,-1.3756 1.8063,-1.6425 0.98462,-6.1751 -0.682,-3.8346 -3.14185,-8.445 -2.45984,-4.6104 -5.66269,-8.1326 -6.8163,-7.4962 -15.59033,-9.2523 -5.73575,-1.1366 -10.9128,0.5186 -5.1319,1.6141 -11.41298,6.5006 8.21144,0.8653 14.20197,3.9151 6.07676,3.0539 11.62014,9.1502 8.95153,9.8443 10.66084,21.1593 0.95327,6.3103 -1.19736,12.4732 -2.13835,5.9042 -7.06051,10.38 -9.6637,8.7872 -22.88428,6.0421 -12.79358,-2.6384 -23.83928,-14.7857 -11.908,-13.0957 -12.00814,-26.4514 -0.0996,-8.819 4.45668,-17.4168 4.40851,-8.216 11.49823,-14.6627 14.40522,-13.0988 31.39047,-12.2921 17.58879,0.8355 30.93397,15.5117 4.681073,5.1479 7.510478,10.1647 2.870468,5.062 5.404573,12.6571 0.866616,2.6768 1.852106,3.7606 0.698056,0.7677 1.942096,0.9564 1.030539,0.1354 1.457541,0.2421 l 0.341,1.9173 z m -52.971664,-2.7322 q -6.24144,-6.8639 -13.57021,-8.1194 -6.08473,-1.0667 -10.55532,2.9984 -4.47058,4.0652 -4.03054,10.2647 0.51409,7.3696 6.87872,14.369 6.36462,6.9994 13.65233,8.2097 6.12988,1.0257 10.465,-2.9163 4.5609,-4.1472 4.12085,-10.3467 -0.51818,-7.2834 -6.96083,-14.4594 z"
         style="font-style:normal;font-variant:normal;font-weight:normal;font-stretch:normal;font-size:125px;font-family:'Copperplate Gothic Bold';-inkscape-font-specification:'Copperplate Gothic Bold, ';letter-spacing:10.30000019px;word-spacing:-1.37px"
         id="path4203" />
    </g>
  </g>
</svg>
